<?xml version="1.0" encoding="UTF-8"?>
<svg id="LOGOTIPO" xmlns="http://www.w3.org/2000/svg" xmlns:xlink="http://www.w3.org/1999/xlink" viewBox="0 0 1057.01 1057.01">
  <defs>
    <style>
      .cls-1 {
        fill: url(#linear-gradient-2);
      }

      .cls-2 {
        fill: none;
        stroke: url(#linear-gradient-4);
        stroke-miterlimit: 10;
        stroke-width: 34px;
      }

      .cls-3 {
        fill: url(#linear-gradient-3);
      }

      .cls-4 {
        fill: url(#linear-gradient);
      }
    </style>
    <linearGradient id="linear-gradient" x1="603.63" y1="588.26" x2="761.22" y2="588.26" gradientUnits="userSpaceOnUse">
      <stop offset="0" stop-color="#f4bf6a"/>
      <stop offset="0" stop-color="#d29e4a"/>
      <stop offset=".26" stop-color="#b83"/>
      <stop offset=".69" stop-color="#ffff81"/>
      <stop offset="1" stop-color="#905c00"/>
    </linearGradient>
    <linearGradient id="linear-gradient-2" x1="13523.06" y1="588.46" x2="13680.66" y2="588.46" gradientTransform="translate(13975.81) rotate(-180) scale(1 -1)" xlink:href="#linear-gradient"/>
    <linearGradient id="linear-gradient-3" x1="373.94" y1="474.21" x2="682.68" y2="474.21" xlink:href="#linear-gradient"/>
    <linearGradient id="linear-gradient-4" x1="183.89" y1="528.5" x2="872.48" y2="528.5" xlink:href="#linear-gradient"/>
  </defs>
  <rect y="-8.79" width="1065.8" height="1065.8"/>
  <polygon class="cls-4" points="684.1 468.74 761.22 514.01 761.22 707.78 603.63 706.81 603.63 629.69 680.75 629.69 684.1 468.74"/>
  <polygon class="cls-1" points="372.27 468.94 295.15 514.21 295.15 707.98 452.74 707.01 452.74 629.89 375.62 629.89 372.27 468.94"/>
  <polygon class="cls-3" points="487.79 360.01 373.94 468.94 373.94 376.07 528.19 240.92 682.68 377.44 682.17 466.07 566.75 358.78 566.75 707.49 490.14 707.49 487.79 360.01"/>
  <ellipse class="cls-2" cx="528.19" cy="528.5" rx="327.29" ry="314.04"/>
</svg>